<svg data-piece-art="arcane-spire-v2" viewBox="-24 0 163 188" xmlns="http://www.w3.org/2000/svg">
  <defs>
    <linearGradient id="frame" x1="0" y1="0" x2="0" y2="1"><stop offset="0%" stop-color="rgba(7,31,51,0.97)"/><stop offset="100%" stop-color="rgba(3,16,28,0.98)"/></linearGradient>
    <radialGradient id="glow" cx="50%" cy="100%" r="100%"><stop offset="0%" stop-color="rgba(255,209,130,0.62)"/><stop offset="46%" stop-color="rgba(255,176,84,0.18)"/><stop offset="80%" stop-color="rgba(2,12,24,0.96)"/></radialGradient>
    <linearGradient id="leaf" x1="0" y1="0" x2="0" y2="1"><stop offset="0%" stop-color="rgba(8,30,50,0.99)"/><stop offset="100%" stop-color="rgba(2,13,26,0.99)"/></linearGradient>
    <clipPath id="interiorClip"><path d="M7.68,151.5 V58 A42.7,42.7 0 0 1 50.4,7.68 L64.8,7.68 A42.7,42.7 0 0 1 107.5,58 V151.5 A2.2,2.2 0 0 1 105.3,153.7 L9.9,153.7 A2.2,2.2 0 0 1 7.68,151.5 Z"/></clipPath>
  </defs>
  <rect x="-9.6" y="159.2" width="134.4" height="15.2" fill="rgba(5,18,32,0.98)" stroke="rgba(45,245,255,0.92)" stroke-width="2.5"/>
  <rect x="-24" y="173.6" width="163.2" height="11.5" fill="rgba(5,18,32,0.98)" stroke="rgba(45,245,255,0.88)" stroke-width="2.5"/>
  <path d="M0,154.7 L0,50.4 A50.4,50.4 0 0 1 50.4,0 L64.8,0 A50.4,50.4 0 0 1 115.2,50.4 L115.2,154.7 A4.5,4.5 0 0 1 110.7,159.2 L4.5,159.2 A4.5,4.5 0 0 1 0,154.7 Z" fill="url(#frame)" stroke="rgba(45,245,255,0.96)" stroke-width="2.5"/>
  <path d="M9,150 V56 A41,41 0 0 1 50.4,15 L64.8,15 A41,41 0 0 1 106,56 V150" fill="none" stroke="rgba(45,245,255,0.4)" stroke-width="2"/>
  <g clip-path="url(#interiorClip)"><rect data-role="interior" x="7.68" y="7.68" width="99.84" height="146" fill="url(#glow)"/></g>
  <g data-role="leaf-left">
    <path d="M7.68,151.5 V58 A42.7,42.7 0 0 1 50.4,15.3 L56.4,15.3 V153.7 L9.9,153.7 A2.2,2.2 0 0 1 7.68,151.5 Z" fill="url(#leaf)" stroke="rgba(45,245,255,0.34)" stroke-width="1.5"/>
    <line x1="44" y1="22" x2="44" y2="148" stroke="rgba(45,245,255,0.28)" stroke-width="1.5"/>
  </g>
  <g data-role="leaf-right">
    <path d="M107.5,151.5 V58 A42.7,42.7 0 0 0 64.8,15.3 L58.8,15.3 V153.7 L105.3,153.7 A2.2,2.2 0 0 0 107.5,151.5 Z" fill="url(#leaf)" stroke="rgba(45,245,255,0.34)" stroke-width="1.5"/>
    <line x1="71.2" y1="22" x2="71.2" y2="148" stroke="rgba(45,245,255,0.28)" stroke-width="1.5"/>
  </g>
  <path data-role="accent" d="M57.6 69.4 L67.8 79.6 L57.6 89.8 L47.4 79.6 Z" fill="rgba(8,27,47,0.98)" stroke="rgba(45,245,255,0.95)" stroke-width="2"/>
</svg>
