<svg data-piece-art="arcane-spire-v3" viewBox="0 0 560 250" xmlns="http://www.w3.org/2000/svg">
  <defs>
    <filter id="cyanSoft" x="-70%" y="-70%" width="240%" height="240%">
      <feDropShadow dx="0" dy="0" stdDeviation="8" flood-color="rgb(45,245,255)" flood-opacity="0.36"/>
    </filter>
    <filter id="coneGlow" x="-55%" y="-55%" width="210%" height="210%">
      <feDropShadow dx="0" dy="0" stdDeviation="8" flood-color="rgb(45,245,255)" flood-opacity="0.16"/>
    </filter>
    <radialGradient id="peakHi" cx="50%" cy="4%" r="72%">
      <stop offset="0%" stop-color="rgba(45,245,255,0.18)"/>
      <stop offset="58%" stop-color="rgba(45,245,255,0)"/>
    </radialGradient>
    <linearGradient id="peakBody" x1="0" y1="0" x2="0" y2="1">
      <stop offset="0%" stop-color="rgb(10,39,61)" stop-opacity="0.98"/>
      <stop offset="54%" stop-color="rgb(5,19,34)" stop-opacity="0.99"/>
      <stop offset="100%" stop-color="rgb(2,9,18)" stop-opacity="0.99"/>
    </linearGradient>
    <linearGradient id="eaveBody" x1="0" y1="0" x2="0" y2="1">
      <stop offset="0%" stop-color="rgb(11,34,53)"/>
      <stop offset="100%" stop-color="rgb(4,15,28)"/>
    </linearGradient>
    <clipPath id="peakClip">
      <path d="M280 38 L462 132 L535 132 L504 191 L56 191 L25 132 L98 132 Z"/>
    </clipPath>
  </defs>

  <g filter="url(#coneGlow)">
    <path d="M280 38 L462 132 L535 132 L504 191 L56 191 L25 132 L98 132 Z" fill="url(#peakBody)"/>
  </g>
  <g clip-path="url(#peakClip)">
    <path d="M280 38 L462 132 L535 132 L504 191 L56 191 L25 132 L98 132 Z" fill="url(#peakHi)"/>
    <path d="M111 116 H449" stroke="rgba(45,245,255,0.46)" stroke-width="2.3" stroke-linecap="round"/>
    <path d="M83 148 H477" stroke="rgba(45,245,255,0.44)" stroke-width="2.3" stroke-linecap="round"/>
    <path d="M62 179 H498" stroke="rgba(45,245,255,0.38)" stroke-width="2" stroke-linecap="round"/>
  </g>
  <path d="M280 38 L462 132 H535 L504 191 H56 L25 132 H98 Z" fill="none" stroke="rgba(45,245,255,0.92)" stroke-width="3"/>

  <g filter="url(#cyanSoft)">
    <rect x="279" y="22" width="2" height="48" fill="rgba(45,245,255,0.94)"/>
    <rect x="270" y="2" width="20" height="20" transform="rotate(45 280 12)" fill="rgba(8,27,47,0.96)" stroke="rgba(45,245,255,0.94)" stroke-width="2"/>
    <circle cx="280" cy="38" r="6.5" fill="rgba(8,27,47,0.96)" stroke="rgba(45,245,255,0.94)" stroke-width="2"/>
  </g>

  <g filter="url(#cyanSoft)">
    <path d="M48 193 H512 L493 221 H67 Z" fill="url(#eaveBody)" stroke="rgba(45,245,255,0.9)" stroke-width="2.5"/>
    <path d="M82 220 H478 V236 H82 Z" fill="rgba(5,18,32,0.99)" stroke="rgba(45,245,255,0.76)" stroke-width="2"/>
  </g>
</svg>
