<svg data-piece-art="arcane-spire-v2" viewBox="0 0 200 184" xmlns="http://www.w3.org/2000/svg">
  <defs>
    <radialGradient id="aura" gradientUnits="userSpaceOnUse" cx="100" cy="48" r="60">
      <stop offset="0" stop-color="rgba(255,205,120,0.5)"/>
      <stop offset="0.55" stop-color="rgba(255,180,90,0.16)"/>
      <stop offset="1" stop-color="rgba(255,180,90,0)"/>
    </radialGradient>
    <radialGradient id="pages" gradientUnits="userSpaceOnUse" cx="100" cy="50" r="54">
      <stop offset="0" stop-color="rgba(255,222,150,0.92)"/>
      <stop offset="0.45" stop-color="rgba(248,186,98,0.6)"/>
      <stop offset="0.8" stop-color="rgba(166,106,42,0.22)"/>
      <stop offset="1" stop-color="rgba(120,70,24,0.08)"/>
    </radialGradient>
    <linearGradient id="desk" gradientUnits="userSpaceOnUse" x1="0" y1="40" x2="0" y2="94">
      <stop offset="0" stop-color="#0b2440"/>
      <stop offset="1" stop-color="#04101f"/>
    </linearGradient>
    <linearGradient id="stone" gradientUnits="userSpaceOnUse" x1="0" y1="90" x2="0" y2="176">
      <stop offset="0" stop-color="#0c2238"/>
      <stop offset="1" stop-color="#040e1b"/>
    </linearGradient>
    <radialGradient id="shadow" gradientUnits="userSpaceOnUse" cx="100" cy="173" r="58">
      <stop offset="0" stop-color="rgba(0,0,0,0.55)"/>
      <stop offset="0.7" stop-color="rgba(0,0,0,0.26)"/>
      <stop offset="1" stop-color="rgba(0,0,0,0)"/>
    </radialGradient>
  </defs>

  <ellipse class="tome-svg-aura" cx="100" cy="48" rx="60" ry="36" fill="url(#aura)"/>
  <ellipse cx="100" cy="173" rx="58" ry="7.5" fill="url(#shadow)"/>

  <polygon points="46,174 154,174 147,161 53,161" fill="url(#stone)" stroke="rgba(45,245,255,0.85)" stroke-width="2" stroke-linejoin="round"/>
  <polygon points="61,161 139,161 133,149 67,149" fill="url(#stone)" stroke="rgba(45,245,255,0.6)" stroke-width="2" stroke-linejoin="round"/>
  <polygon points="93,149 107,149 104,99 96,99" fill="url(#stone)" stroke="rgba(45,245,255,0.45)" stroke-width="2" stroke-linejoin="round"/>
  <path d="M100 106 V143" stroke="rgba(45,245,255,0.16)" stroke-width="1.2"/>
  <rect x="86" y="90.5" width="28" height="9" rx="2" fill="url(#stone)" stroke="rgba(45,245,255,0.55)" stroke-width="2"/>

  <polygon points="36,84 164,84 160,93.5 40,93.5" fill="#04101f" stroke="rgba(45,245,255,0.5)" stroke-width="2" stroke-linejoin="round"/>
  <polygon class="tome-svg-desk-face" points="52,40 148,40 164,84 36,84" fill="url(#desk)" stroke="rgba(45,245,255,0.6)" stroke-width="2.25" stroke-linejoin="round"/>
  <polygon points="58,46 142,46 155,79 45,79" fill="none" stroke="rgba(45,245,255,0.15)" stroke-width="1.2"/>

  <path d="M100 75 C85 78.5 68 77 57 71.5 L62.5 48 C73 52 87 52.5 100 49.5 Z" fill="#0d2540" stroke="rgba(45,245,255,0.5)" stroke-width="1.6" stroke-linejoin="round"/>
  <path d="M100 75 C115 78.5 132 77 143 71.5 L137.5 48 C127 52 113 52.5 100 49.5 Z" fill="#0d2540" stroke="rgba(45,245,255,0.5)" stroke-width="1.6" stroke-linejoin="round"/>
  <path d="M57 74.5 C68 80 85 81.5 100 78 C115 81.5 132 80 143 74.5" fill="none" stroke="rgba(45,245,255,0.3)" stroke-width="1.2"/>
  <path d="M59 77.5 C70 82.5 86 84 100 80.5 C114 84 130 82.5 141 77.5" fill="none" stroke="rgba(45,245,255,0.3)" stroke-width="1.2" opacity="0.55"/>

  <g class="tome-svg-pages">
    <path d="M100 75 C85 78.5 68 77 57 71.5 L62.5 48 C73 52 87 52.5 100 49.5 Z" fill="url(#pages)"/>
    <path d="M100 75 C115 78.5 132 77 143 71.5 L137.5 48 C127 52 113 52.5 100 49.5 Z" fill="url(#pages)"/>
    <g stroke="rgba(82,46,12,0.6)" stroke-width="1.4" stroke-linecap="round">
      <path d="M68 56.5 L91 54.5"/>
      <path d="M69.5 61.5 L92 59.5"/>
      <path d="M71 66.5 L91 64.5"/>
      <path d="M109 54.5 L132 56.5"/>
      <path d="M108 59.5 L130.5 61.5"/>
      <path d="M109 64.5 L129 66.5"/>
    </g>
  </g>
  <path d="M100 49.5 V75" stroke="rgba(45,245,255,0.6)" stroke-width="1.8"/>

  <g class="tome-svg-motes" fill="#ffd98f">
    <circle class="tome-svg-mote" cx="87" cy="27" r="1.6"/>
    <circle class="tome-svg-mote" cx="113" cy="20" r="2"/>
    <circle class="tome-svg-mote" cx="99" cy="11" r="1.3"/>
  </g>
</svg>
